<?xml version="1.0" encoding="iso-8859-1"?>
<!-- Uploaded to: SVG Repo, www.svgrepo.com, Generator: SVG Repo Mixer Tools -->
<svg fill="#000000" height="800px" width="800px" version="1.1" id="Layer_1" xmlns="http://www.w3.org/2000/svg" xmlns:xlink="http://www.w3.org/1999/xlink" 
	 viewBox="0 0 493.464 493.464" xml:space="preserve">
<g>
	<g>
		<path d="M246.734,0C110.69,0,0.01,110.684,0.01,246.736c0,136.04,110.68,246.728,246.728,246.728
			c136.044,0,246.716-110.688,246.716-246.728C493.454,110.684,382.782,0,246.734,0z M233.478,257.188l-84.328,58.916
			c-2.568,1.804-5.208,2.756-7.64,2.756c-4.804,0-7.788-3.772-7.788-9.848V185.16c0-6.08,2.984-9.852,7.784-9.852
			c2.436,0,5.076,0.956,7.668,2.78l84.972,58.896c3.744,2.632,5.804,6.056,5.804,9.632
			C239.95,250.44,237.586,254.292,233.478,257.188z M370.146,257.192l-83.652,58.912c-2.568,1.804-4.98,2.756-6.988,2.756
			c-5.364,0-5.78-7.54-5.78-9.848V185.16c0-2.312,0.416-9.852,5.78-9.852c2.004,0,4.42,0.956,6.984,2.764l83.668,58.912
			c3.952,2.78,6.132,6.364,6.132,10.092C376.294,250.812,374.11,254.404,370.146,257.192z"/>
	</g>
</g>
</svg>